# xmcd CD database file
#
# Track frame offsets:
#	150
#	26638
#	41140
#	64026
#	92477
#	116960
#	141600
#	163305
#	190187
#
# Disc length: 2834 seconds
#
# Revision: 0
# Processed by: cddbd v1.5.2PL0 Copyright (c) Steve Scherf et al.
# Submitted via: CDex 1.51
#
DISCID=860b1009
DTITLE=Anthony Geraci - Serendipity
DYEAR=2010
DGENRE=Blues
TTITLE0=Alyakim
TTITLE1=Flakey Foont
TTITLE2=You Dont Know What Love Is
TTITLE3=Jason's Lament
TTITLE4=I Can't Go Back To You
TTITLE5=Provence
TTITLE6=Wake Me Up When September Ends
TTITLE7=Toddacus Rex
TTITLE8=Neda
EXTD=YEAR: 2010
EXTT0=
EXTT1=
EXTT2=
EXTT3=
EXTT4=
EXTT5=
EXTT6=
EXTT7=
EXTT8=
PLAYORDER=
